<svg xmlns="http://www.w3.org/2000/svg" width="760" height="340" viewBox="0 0 760 340">
<rect width="100%" height="100%" fill="#151210"/>
<text x="24" y="30" fill="#f7efe8" font-family="Inter, sans-serif" font-size="18">Compute-parity head-to-head</text>
<line x1="120" x2="732" y1="268.0" y2="268.0" stroke="#302821" stroke-width="1"/>
<text x="72" y="272.0" fill="#b9aaa0" font-family="Inter, sans-serif" font-size="11">0.0</text>
<line x1="120" x2="732" y1="213.0" y2="213.0" stroke="#302821" stroke-width="1"/>
<text x="72" y="217.0" fill="#b9aaa0" font-family="Inter, sans-serif" font-size="11">0.5</text>
<line x1="120" x2="732" y1="158.0" y2="158.0" stroke="#302821" stroke-width="1"/>
<text x="72" y="162.0" fill="#b9aaa0" font-family="Inter, sans-serif" font-size="11">1.0</text>
<line x1="120" x2="732" y1="103.0" y2="103.0" stroke="#302821" stroke-width="1"/>
<text x="72" y="107.0" fill="#b9aaa0" font-family="Inter, sans-serif" font-size="11">1.5</text>
<line x1="120" x2="732" y1="48.0" y2="48.0" stroke="#302821" stroke-width="1"/>
<text x="72" y="52.0" fill="#b9aaa0" font-family="Inter, sans-serif" font-size="11">2.0</text>
<text x="142" y="304" fill="#d8c9bd" font-family="Inter, sans-serif" font-size="12">banking77</text>
<rect x="120" y="171.2" width="34" height="96.8" fill="#8a8a8a" rx="2"/>
<text x="122" y="166.2" fill="#f7efe8" font-family="Inter, sans-serif" font-size="10">0.88</text>
<rect x="162" y="171.2" width="34" height="96.8" fill="#f4c542" rx="2"/>
<text x="164" y="166.2" fill="#f7efe8" font-family="Inter, sans-serif" font-size="10">0.88</text>
<rect x="204" y="170.7" width="34" height="97.3" fill="#f97316" rx="2"/>
<text x="206" y="165.7" fill="#f7efe8" font-family="Inter, sans-serif" font-size="10">0.89</text>
<text x="332" y="304" fill="#d8c9bd" font-family="Inter, sans-serif" font-size="12">tblite</text>
<rect x="310" y="158.0" width="34" height="110.0" fill="#8a8a8a" rx="2"/>
<text x="312" y="153.0" fill="#f7efe8" font-family="Inter, sans-serif" font-size="10">1.00</text>
<rect x="352" y="158.0" width="34" height="110.0" fill="#f4c542" rx="2"/>
<text x="354" y="153.0" fill="#f7efe8" font-family="Inter, sans-serif" font-size="10">1.00</text>
<rect x="394" y="158.0" width="34" height="110.0" fill="#f97316" rx="2"/>
<text x="396" y="153.0" fill="#f7efe8" font-family="Inter, sans-serif" font-size="10">1.00</text>
<text x="522" y="304" fill="#d8c9bd" font-family="Inter, sans-serif" font-size="12">crafter</text>
<rect x="500" y="158.0" width="34" height="110.0" fill="#8a8a8a" rx="2"/>
<text x="502" y="153.0" fill="#f7efe8" font-family="Inter, sans-serif" font-size="10">1.00</text>
<rect x="542" y="48.0" width="34" height="220.0" fill="#f4c542" rx="2"/>
<text x="544" y="43.0" fill="#f7efe8" font-family="Inter, sans-serif" font-size="10">2.00</text>
<rect x="584" y="48.0" width="34" height="220.0" fill="#f97316" rx="2"/>
<text x="586" y="43.0" fill="#f7efe8" font-family="Inter, sans-serif" font-size="10">2.00</text>
<rect x="120" y="322" width="10" height="10" fill="#8a8a8a"/>
<text x="136" y="331" fill="#d8c9bd" font-family="Inter, sans-serif" font-size="11">Seed candidate</text>
<rect x="270" y="322" width="10" height="10" fill="#f4c542"/>
<text x="286" y="331" fill="#d8c9bd" font-family="Inter, sans-serif" font-size="11">gepa-ai</text>
<rect x="420" y="322" width="10" height="10" fill="#f97316"/>
<text x="436" y="331" fill="#d8c9bd" font-family="Inter, sans-serif" font-size="11">Synth GEPA</text>
</svg>